<svg xmlns="http://www.w3.org/2000/svg" width="231.406" height="51.813" viewBox="0 0 231.406 51.813">
  <g id="Group_7184" data-name="Group 7184" transform="translate(0 0)">
    <g id="Group_7182" data-name="Group 7182">
      <g id="Component_192_10" data-name="Component 192 – 10">
        <path id="Path_10340" data-name="Path 10340" d="M565.869,397.88a8.065,8.065,0,0,1,.307-2.8c.255-2.24.652-4.464.719-6.725a2.5,2.5,0,0,1,.05-.516c.029-.12.1-.264.25-.263s.215.133.243.262a3.387,3.387,0,0,1,.09,1.164c-.36,2.664-.729,5.327-1.086,7.992a1.933,1.933,0,0,1-.312.884Z" transform="translate(-511.932 -346.066)" fill="#a8a8a8"/>
        <path id="Path_10341" data-name="Path 10341" d="M732.071,128.33a9.3,9.3,0,0,1,.794-4.431,6.777,6.777,0,0,1,7.5-3.98c4.11.533,6.163,3.345,6.413,7.27a12.814,12.814,0,0,1-.374,4.32,6.831,6.831,0,0,1-7.258,5.225c-4.847-.155-6.774-3.708-7.077-7.233C732.042,129.113,732.07,128.72,732.071,128.33Zm11.618-.14a6.638,6.638,0,0,0-.985-3.94,3.91,3.91,0,0,0-6.745.283,8.061,8.061,0,0,0,.053,7.585,3.843,3.843,0,0,0,6.532.436A6.827,6.827,0,0,0,743.689,128.19Z" transform="translate(-658.588 -109.88)" fill="#a8a8a8"/>
        <path id="Path_10342" data-name="Path 10342" d="M371.479,132.537a13.145,13.145,0,0,1,3.565,5.044,7.169,7.169,0,0,1,.313.921,1.167,1.167,0,0,1-.557,1.4,1.32,1.32,0,0,1-1.581.008,2.6,2.6,0,0,1-.742-.893q-1.245-2.172-2.489-4.346a3.348,3.348,0,0,0-3.532-1.795c-.391.042-.492.182-.5.565-.021,1.714-.069,3.427-.124,5.14-.032.99-.471,1.5-1.3,1.555s-1.328-.381-1.491-1.366a6.433,6.433,0,0,1-.079-1.035q-.008-5.891,0-11.783c0-.152,0-.3,0-.456.053-1.39.5-1.892,1.9-1.921a61.236,61.236,0,0,1,6.375.131,3.814,3.814,0,0,1,3.827,3.557,4.05,4.05,0,0,1-2.456,4.778C372.261,132.2,371.906,132.349,371.479,132.537Zm-5.49-4.152c0,.608.017,1.217-.007,1.824-.014.361.082.507.472.477,1.255-.1,2.514-.142,3.768-.255a1.973,1.973,0,0,0,1.962-2.216,2.022,2.022,0,0,0-2.042-2.158c-1.236-.087-2.474-.025-3.712-.016-.339,0-.459.114-.448.455C366,127.124,365.988,127.754,365.989,128.384Z" transform="translate(-332.99 -113.148)" fill="#a8a8a8"/>
        <path id="Path_10343" data-name="Path 10343" d="M121.278,128.371c0,2.28.021,4.56-.009,6.84a1.48,1.48,0,0,1-2.005,1.525,1.674,1.674,0,0,1-1-1.737c-.009-1.628-.023-3.258.013-4.885.014-.635-.21-.827-.831-.813-1.65.035-3.3.011-4.951.011-.766,0-.858.078-.837.864.046,1.736.084,3.474-.037,5.207a1.457,1.457,0,0,1-2.034,1.334,1.609,1.609,0,0,1-.955-1.693c-.017-1.368-.01-2.736-.011-4.1q0-4.43,0-8.859a3.821,3.821,0,0,1,.1-.967,1.375,1.375,0,0,1,1.491-1.161,1.407,1.407,0,0,1,1.405,1.348,33.218,33.218,0,0,1,.047,4.23c-.04,1.062,0,1.11,1.054,1.108q2.312,0,4.624,0c.9,0,.927-.025.924-.961,0-1.346-.027-2.693,0-4.039a1.512,1.512,0,0,1,2.131-1.554,1.41,1.41,0,0,1,.868,1.4q0,3.452,0,6.9Z" transform="translate(-108.625 -109.947)" fill="#a8a8a8"/>
        <path id="Path_10344" data-name="Path 10344" d="M243.652,130.929c.079-2.213-.1-4.429.094-6.638.1-1.088.552-1.473,1.653-1.479q4.1-.024,8.205-.023c1.039,0,1.473.368,1.491,1.209s-.475,1.314-1.478,1.326c-1.693.019-3.387.006-5.081.007-.391,0-.782.014-1.172,0-.406-.019-.611.136-.608.559q.009,1.433,0,2.866c0,.64.459.586.866.586,1.715,0,3.429-.008,5.144-.011a6.507,6.507,0,0,1,.65.031.991.991,0,0,1,1.038,1.078c.024.816-.225,1.21-.944,1.294a43.125,43.125,0,0,1-5.138.078c-1.952,0-1.584-.106-1.6,1.565-.01.76.024,1.521-.018,2.279-.033.592.167.8.775.794,2.084-.032,4.169-.024,6.253-.015,1,0,1.517.4,1.576,1.176a1.208,1.208,0,0,1-1.244,1.411c-1.519.037-3.039.036-4.559.037-1.389,0-2.779,0-4.168-.03-1.073-.025-1.557-.466-1.642-1.519C243.561,135.315,243.724,133.12,243.652,130.929Z" transform="translate(-227.739 -112.479)" fill="#a8a8a8"/>
        <path id="Path_10345" data-name="Path 10345" d="M638.2,128.291q0-3,0-5.994c0-.174,0-.348,0-.521.038-1.06.576-1.724,1.434-1.773.916-.052,1.531.524,1.634,1.631.067.711.036,1.431.035,2.148q0,4.625-.019,9.25c0,.809.055.866.9.861,1.715-.009,3.43-.026,5.145-.015,1.008.006,1.474.326,1.646,1.048a1.236,1.236,0,0,1-1.137,1.622c-2.756.09-5.515.112-8.271,0-.9-.038-1.363-.693-1.368-1.8C638.2,132.591,638.2,130.441,638.2,128.291Z" transform="translate(-575.796 -110.02)" fill="#a8a8a8"/>
        <path id="Path_10346" data-name="Path 10346" d="M522.722,199.192a27.587,27.587,0,0,0-.37-4.792,2.943,2.943,0,0,0-3.007-2.178c-.274.007-.248.151-.2.346.169.649.325,1.3.488,1.952.026.1.068.207.085.313.066.4.108.9-.306,1.022-.358.105-.607-.295-.752-.67-.535-1.392-1.11-2.768-1.631-4.165-.352-.942,0-1.328.988-1.119.38.08.744.229,1.12.33.4.107.652-.009.6-.473-.108-1.013-.217-2.026-.346-3.036a1.745,1.745,0,0,0-.725-1.043,7.637,7.637,0,0,1-2.763-4.924,2.377,2.377,0,0,1,.136-1.336c.093-.195.241-.412.493-.34a.5.5,0,0,1,.349.5,9.881,9.881,0,0,0,.07,1.23,5.342,5.342,0,0,0,2.628,3.755,2.4,2.4,0,0,0,2.943-.242c1.57-1.323,2.52-2.9,2.067-5.055-.065-.307,0-.636.36-.735.4-.11.464.266.544.5a5.624,5.624,0,0,1-.365,4.1,8.579,8.579,0,0,1-1.674,2.46,1.969,1.969,0,0,0-.519,1.786,88.5,88.5,0,0,1,1.088,12.954,4.535,4.535,0,0,1,0,.585c-.051.428-.285.806-.715.777-.381-.026-.587-.4-.589-.815C522.72,200.32,522.722,199.756,522.722,199.192Z" transform="translate(-467.885 -161.636)" fill="#a8a8a8"/>
        <path id="Path_10347" data-name="Path 10347" d="M544.066,194.836a1.939,1.939,0,1,1,.14-3.876,1.939,1.939,0,0,1-.14,3.876Z" transform="translate(-491.095 -172.616)" fill="#a8a8a8"/>
        <path id="Path_10348" data-name="Path 10348" d="M556.959,384.694c-.1,1.008-.2,2.017-.3,3.025-.015.143,0,.359-.2.352-.273-.009-.168-.258-.159-.4q.121-1.775.27-3.548c.013-.151-.047-.4.214-.383.2.015.142.232.149.373.009.194,0,.388,0,.582Z" transform="translate(-503.525 -342.677)" fill="#a8a8a8"/>
        <path id="Path_10349" data-name="Path 10349" d="M493.9,51.3a6.8,6.8,0,0,0,3.684-6.45,10.608,10.608,0,0,0-4.173-7.86,10.067,10.067,0,0,0-1.556-1,5.572,5.572,0,0,0-1.038-.427q-.107-.034-.216-.064a2.877,2.877,0,0,0-.514-.117,5.542,5.542,0,0,0-2.051.021,9.258,9.258,0,0,0-5.124,2.958,5.544,5.544,0,0,0-1.043,1.766,2.871,2.871,0,0,0-.156.5,7.488,7.488,0,0,0-.2,2.331,9.018,9.018,0,0,0,.564,2.946,10.827,10.827,0,0,0,4.237,5.443,6.8,6.8,0,0,0,7.428.035l.078-.044Zm-5.669-2.642a5.7,5.7,0,0,1-.451-.356,9.459,9.459,0,0,1-1.116-1.149,11.361,11.361,0,0,1-1.794-3.754q-.086-.392-.145-.8a3.467,3.467,0,0,1,.116-1.295c.007-.023.014-.047.022-.07v0a3.953,3.953,0,0,1,1.008-1.547l.067-.064a4.4,4.4,0,0,1,.514-.408l.013-.008.119-.077.047-.029.086-.051.088-.049.048-.026.127-.065L487,38.9a4.416,4.416,0,0,1,.611-.241l.088-.026a3.95,3.95,0,0,1,1.845-.1h0l.071.016a3.468,3.468,0,0,1,1.179.547q.325.255.622.526a11.357,11.357,0,0,1,2.354,3.431,9.454,9.454,0,0,1,.438,1.541,10.4,10.4,0,0,1,.076,1.043,3.582,3.582,0,0,1-2.048,3.254A4.42,4.42,0,0,1,488.231,48.661Z" transform="translate(-437.561 -35.303)" fill="#a8a8a8"/>
      </g>
    </g>
    <g id="Group_7176" data-name="Group 7176" transform="translate(125.034 7.325)">
      <path id="Path_10620" data-name="Path 10620" d="M1351.218,468.933h-.557a1.762,1.762,0,0,0-1.682,1.238,8.592,8.592,0,1,0-.02,14.357,1.761,1.761,0,0,0,1.7,1.315h.557a1.762,1.762,0,0,0,1.762-1.762V470.7A1.762,1.762,0,0,0,1351.218,468.933Zm-6.963,13.023a4.614,4.614,0,1,1,4.614-4.614A4.619,4.619,0,0,1,1344.255,481.957Z" transform="translate(-1246.608 -463.911)" fill="#a8a8a8"/>
      <path id="Path_10621" data-name="Path 10621" d="M1015.616,420.478a8.54,8.54,0,0,0-4.512,1.284v-3.993a2.04,2.04,0,0,0-2.04-2.04h0a2.04,2.04,0,0,0-2.04,2.04v11.48c0,.061,0,.122.009.182a8.591,8.591,0,1,0,8.583-8.953Zm0,13.206a4.614,4.614,0,1,1,4.614-4.614A4.619,4.619,0,0,1,1015.616,433.684Z" transform="translate(-947.286 -415.618)" fill="#a8a8a8"/>
      <path id="Path_10622" data-name="Path 10622" d="M802.692,469.129h-.557a1.762,1.762,0,0,0-1.687,1.254,8.592,8.592,0,1,0-.012,14.356,1.761,1.761,0,0,0,1.7,1.3h.557a1.762,1.762,0,0,0,1.762-1.762V470.891A1.762,1.762,0,0,0,802.692,469.129Zm-6.963,13.043a4.614,4.614,0,1,1,4.614-4.614A4.619,4.619,0,0,1,795.729,482.172Z" transform="translate(-747.015 -464.106)" fill="#a8a8a8"/>
      <g id="Group_7165" data-name="Group 7165" transform="translate(85.6 6.829)">
        <path id="Path_10623" data-name="Path 10623" d="M1296.941,491.048" transform="translate(-1296.941 -491.048)" fill="#a8a8a8"/>
      </g>
      <path id="Path_10624" data-name="Path 10624" d="M346.712,558.8l-.6.6-.6.6-.6.6-.6.6a3.961,3.961,0,0,1-5.608,0l-.046-.046-.047-.047-.047-.046-.046-.046a3.962,3.962,0,0,1,0-5.608l.6-.6.6-.6.6-.6.6-.6,1.448,1.448,1.449,1.449,1.448,1.448Z" transform="translate(-337.373 -540.646)" fill="#a8a8a8"/>
      <path id="Path_10625" data-name="Path 10625" d="M407.734,505.487a4.005,4.005,0,1,1-.316-1.564A4.008,4.008,0,0,1,407.734,505.487Z" transform="translate(-394.139 -493.711)" fill="#a8a8a8"/>
      <path id="Path_10626" data-name="Path 10626" d="M1227.36,469.766h-.07a8.536,8.536,0,0,0-4.369,1.2l-.22.136a1.763,1.763,0,0,0-1.684-1.242h-.557a1.762,1.762,0,0,0-1.762,1.762v13.386a1.762,1.762,0,0,0,1.762,1.762h.557a1.762,1.762,0,0,0,1.762-1.762v-7.613h0a4.622,4.622,0,0,1,4.511-3.649h.013a1.214,1.214,0,0,0,1.237-1.2v-1.571A1.2,1.2,0,0,0,1227.36,469.766Z" transform="translate(-1140.078 -464.835)" fill="#a8a8a8"/>
      <path id="Path_10627" data-name="Path 10627" d="M590.5,557.813l.6.6.6.6.6.6.6.6a3.962,3.962,0,0,0,5.608,0l.046-.047.047-.046.046-.047.046-.046a3.962,3.962,0,0,0,0-5.608l-.6-.6-.6-.6-.6-.6-.6-.6-1.448,1.448-1.448,1.449-1.449,1.448Z" transform="translate(-567.915 -539.75)" fill="#a8a8a8"/>
      <path id="Path_10628" data-name="Path 10628" d="M545.21,500.969h-3.377l-.6.6-.6.6-.6.6-.6.6v3.377l.6.6.6.6.6.6.6.6h3.377l.6-.6.6-.6.6-.6.6-.6v-3.377l-.6-.6-.6-.6-.6-.6Z" transform="translate(-521.418 -493.254)" fill="#a8a8a8"/>
      <path id="Path_10629" data-name="Path 10629" d="M458.578,425.713l-1.4-1.4-1.4-1.4-1.4-1.4-1.4-1.4,1.4-1.4,1.4-1.4,1.4-1.4,1.4-1.4,1.4,1.4,1.4,1.4,1.4,1.4,1.4,1.4-1.4,1.4-1.4,1.4-1.4,1.4Z" transform="translate(-442.655 -414.49)" fill="#a8a8a8"/>
    </g>
    <path id="Path_10634" data-name="Path 10634" d="M-11917.33-107.215v28.537" transform="translate(12025.212 110.591)" fill="none" stroke="#a8a8a8" stroke-width="1"/>
  </g>
</svg>
